<svg xmlns="http://www.w3.org/2000/svg" viewBox="0 0 120 120">
  <rect width="120" height="120" rx="24" fill="#1c1b22" />
  <g transform="translate(60 60)">
    <polygon points="-26,0 -13,-22 13,-22 26,0 13,22 -13,22" fill="#e6e6e6" transform="translate(0 -36)" />
    <polygon points="-26,0 -13,-22 13,-22 26,0 13,22 -13,22" fill="#e6e6e6" transform="translate(31 -18)" />
    <polygon points="-26,0 -13,-22 13,-22 26,0 13,22 -13,22" fill="#e6e6e6" transform="translate(31 18)" />
    <polygon points="-26,0 -13,-22 13,-22 26,0 13,22 -13,22" fill="#e6e6e6" transform="translate(0 36)" />
    <polygon points="-26,0 -13,-22 13,-22 26,0 13,22 -13,22" fill="#e6e6e6" transform="translate(-31 18)" />
    <polygon points="-26,0 -13,-22 13,-22 26,0 13,22 -13,22" fill="#e6e6e6" transform="translate(-31 -18)" />
    <polygon points="-26,0 -13,-22 13,-22 26,0 13,22 -13,22" fill="#fce303" />
  </g>
</svg>
